<svg width="84" height="84" viewBox="0 0 84 84" fill="none" xmlns="http://www.w3.org/2000/svg">
<g id="Icon">
<path id="Rectangle 255" d="M79 0H5C2.23858 0 0 2.23858 0 5V79C0 81.7614 2.23858 84 5 84H79C81.7614 84 84 81.7614 84 79V5C84 2.23858 81.7614 0 79 0Z" fill="#FEF3E8"/>
<g id="career">
<g id="Group 455">
<path id="Path 256" d="M49.3463 23.2617L42.8123 32.7857C42.4923 32.7544 42.1676 32.7384 41.8383 32.7377C39.7906 32.7262 37.7931 33.3707 36.1383 34.5767L33.4653 30.6767L22.9062 46.0877H27.0753V56.8277H28.6752C28.3521 57.9024 28.1881 59.0185 28.1882 60.1407V61.2537H55.4983V60.1417C55.4969 58.1778 54.9966 56.2463 54.0442 54.5287H55.7442V38.6707H59.9122L49.3463 23.2617ZM41.8463 34.9617C43.5393 34.8944 45.1902 35.4993 46.439 36.6445C47.6878 37.7897 48.4331 39.3822 48.5123 41.0747C48.4328 42.7681 47.6866 44.3614 46.4366 45.5065C45.1865 46.6516 43.5341 47.2557 41.8403 47.1867C40.1464 47.2557 38.494 46.6516 37.2439 45.5065C35.9939 44.3614 35.2477 42.7681 35.1682 41.0747C35.2474 39.3809 35.9937 37.7873 37.244 36.6419C38.4943 35.4965 40.147 34.8925 41.8412 34.9617H41.8463ZM29.5043 54.6027V43.8617H27.3043L33.4752 34.8617L34.4262 36.2477C33.3413 37.6225 32.7487 39.3214 32.7432 41.0727C32.7723 42.5886 33.2184 44.0672 34.0325 45.3463C34.8466 46.6254 35.9972 47.6555 37.3583 48.3237C34.0616 49.3406 31.2834 51.5887 29.6013 54.6007H29.5082L29.5043 54.6027ZM37.5372 59.0287H30.6783C30.9456 57.1504 31.7188 55.3801 32.915 53.9075C34.1113 52.4348 35.6855 51.3153 37.4693 50.6687L38.9023 53.0337L37.5372 59.0287ZM40.0193 59.0287L41.1713 53.9677H42.5123L43.6643 59.0287H40.0193ZM42.7843 51.7427H40.8982L39.8533 50.0187C41.1694 49.8027 42.5121 49.8027 43.8282 50.0187L42.7843 51.7427ZM46.1453 59.0287L44.7813 53.0287L46.2123 50.6687C47.996 51.3153 49.5702 52.4348 50.7665 53.9075C51.9627 55.3801 52.7359 57.1504 53.0033 59.0287H46.1453ZM53.3123 36.4447V52.3037H52.4752C50.8225 50.4467 48.6976 49.072 46.3263 48.3257C47.6873 47.6575 48.8379 46.6274 49.652 45.3483C50.4661 44.0692 50.9122 42.5906 50.9413 41.0747C50.8975 39.3664 50.3328 37.7123 49.3229 36.3338C48.3129 34.9553 46.9059 33.9183 45.2903 33.3617L49.3463 27.4467L55.5173 36.4467H53.3123V36.4447Z" fill="#F68C20"/>
</g>
</g>
</g>
</svg>
