<svg width="84" height="84" viewBox="0 0 84 84" fill="none" xmlns="http://www.w3.org/2000/svg">
<g id="Icon">
<path id="Rectangle 255" opacity="0.1" d="M79 0H5C2.23858 0 0 2.23858 0 5V79C0 81.7614 2.23858 84 5 84H79C81.7614 84 84 81.7614 84 79V5C84 2.23858 81.7614 0 79 0Z" fill="#6C63FF"/>
<g id="Layer 2">
<g id="bulb">
<path id="Path 250" d="M42.0004 32.1191C39.9268 32.1195 37.9059 32.7722 36.2238 33.9848C34.5418 35.1974 33.2838 36.9085 32.6281 38.8757C31.9724 40.8428 31.9522 42.9665 32.5704 44.9458C33.1885 46.9251 34.4137 48.6598 36.0724 49.9041V57.8041C36.0718 58.3231 36.1733 58.8372 36.3713 59.3169C36.5693 59.7966 36.8599 60.2327 37.2264 60.6001C37.5929 60.9675 38.0282 61.2592 38.5074 61.4584C38.9867 61.6576 39.5004 61.7605 40.0194 61.7611H43.9714C44.4909 61.7619 45.0055 61.6603 45.4856 61.462C45.9658 61.2638 46.4022 60.9728 46.7698 60.6058C47.1374 60.2387 47.429 59.8028 47.628 59.3229C47.827 58.843 47.9294 58.3286 47.9294 57.8091V49.9091C49.5903 48.6653 50.8174 46.9303 51.4369 44.9499C52.0563 42.9696 52.0366 40.8445 51.3805 38.876C50.7245 36.9075 49.4654 35.1954 47.7817 33.9826C46.0981 32.7699 44.0754 32.1179 42.0004 32.1191ZM44.9644 47.1191C44.6629 47.2932 44.4127 47.5439 44.2392 47.8458C44.0657 48.1476 43.9751 48.49 43.9764 48.8381V57.8091H40.0194V48.8371C40.0211 48.4896 39.9311 48.1478 39.7585 47.8462C39.586 47.5446 39.3369 47.2938 39.0364 47.1191C37.9063 46.4667 37.0231 45.4595 36.5237 44.2539C36.0243 43.0483 35.9367 41.7116 36.2744 40.4511C36.6122 39.1906 37.3564 38.0768 38.3917 37.2823C39.427 36.4879 40.6955 36.0573 42.0004 36.0573C43.3054 36.0573 44.5739 36.4879 45.6092 37.2823C46.6445 38.0768 47.3887 39.1906 47.7264 40.4511C48.0642 41.7116 47.9766 43.0483 47.4772 44.2539C46.9778 45.4595 46.0946 46.4667 44.9644 47.1191Z" fill="#6C63FF"/>
<path id="Path 251" d="M41.9994 30.1383C42.5235 30.1383 43.0261 29.9301 43.3967 29.5595C43.7673 29.189 43.9754 28.6863 43.9754 28.1623V24.2143C43.9754 23.9548 43.9243 23.6978 43.825 23.4581C43.7257 23.2184 43.5802 23.0005 43.3967 22.817C43.2132 22.6335 42.9954 22.488 42.7556 22.3887C42.5159 22.2894 42.2589 22.2383 41.9994 22.2383C41.7399 22.2383 41.483 22.2894 41.2433 22.3887C41.0035 22.488 40.7857 22.6335 40.6022 22.817C40.4187 23.0005 40.2732 23.2184 40.1739 23.4581C40.0745 23.6978 40.0234 23.9548 40.0234 24.2143V28.1663C40.0245 28.6897 40.2332 29.1912 40.6036 29.5609C40.9741 29.9306 41.4761 30.1383 41.9994 30.1383Z" fill="#6C63FF"/>
<path id="Path 252" d="M59.7835 40.0244H55.8315C55.3074 40.0244 54.8048 40.2326 54.4342 40.6032C54.0637 40.9737 53.8555 41.4763 53.8555 42.0004C53.8555 42.5245 54.0637 43.0271 54.4342 43.3977C54.8048 43.7682 55.3074 43.9764 55.8315 43.9764H59.7835C60.3075 43.9764 60.8101 43.7682 61.1807 43.3977C61.5513 43.0271 61.7595 42.5245 61.7595 42.0004C61.7595 41.4763 61.5513 40.9737 61.1807 40.6032C60.8101 40.2326 60.3075 40.0244 59.7835 40.0244Z" fill="#6C63FF"/>
<path id="Path 253" d="M28.1663 40.0244H24.2143C23.6902 40.0244 23.1876 40.2326 22.817 40.6032C22.4465 40.9737 22.2383 41.4763 22.2383 42.0004C22.2383 42.5245 22.4465 43.0271 22.817 43.3977C23.1876 43.7682 23.6902 43.9764 24.2143 43.9764H28.1663C28.6903 43.9764 29.193 43.7682 29.5635 43.3977C29.9341 43.0271 30.1423 42.5245 30.1423 42.0004C30.1423 41.4763 29.9341 40.9737 29.5635 40.6032C29.193 40.2326 28.6903 40.0244 28.1663 40.0244Z" fill="#6C63FF"/>
<path id="Path 254" d="M33.4245 30.973L30.5785 28.167C30.3915 27.9703 30.1664 27.8136 29.9169 27.7067C29.6673 27.5997 29.3987 27.5447 29.1272 27.5449C28.8557 27.5452 28.5871 27.6007 28.3378 27.708C28.0885 27.8154 27.8636 27.9724 27.6769 28.1695C27.4902 28.3666 27.3456 28.5997 27.2519 28.8544C27.1582 29.1092 27.1173 29.3804 27.1317 29.6515C27.1462 29.9226 27.2157 30.1879 27.336 30.4313C27.4563 30.6746 27.6249 30.8909 27.8315 31.067L30.6775 33.814C30.8634 33.9994 31.0843 34.1459 31.3273 34.2451C31.5704 34.3442 31.8307 34.394 32.0932 34.3915C32.3556 34.389 32.615 34.3343 32.8561 34.2305C33.0972 34.1268 33.3153 33.9761 33.4976 33.7873C33.6799 33.5984 33.8227 33.3751 33.9179 33.1305C34.013 32.8859 34.0585 32.6247 34.0517 32.3623C34.0449 32.1 33.986 31.8415 33.8783 31.6021C33.7706 31.3628 33.6164 31.1472 33.4245 30.968V30.973Z" fill="#6C63FF"/>
<path id="Path 255" d="M56.2108 28.2659C55.8406 27.8979 55.3398 27.6914 54.8178 27.6914C54.2958 27.6914 53.795 27.8979 53.4248 28.2659L50.5788 30.9729C50.3919 31.1559 50.2429 31.3738 50.1403 31.6143C50.0376 31.8548 49.9834 32.1132 49.9806 32.3747C49.9778 32.6362 50.0265 32.8957 50.124 33.1383C50.2215 33.381 50.3659 33.6021 50.5488 33.7889C50.9182 34.1663 51.4225 34.3815 51.9506 34.3871C52.2121 34.3899 52.4715 34.3412 52.7142 34.2437C52.9569 34.1462 53.1779 34.0019 53.3648 33.8189L56.2108 31.0719C56.396 30.8882 56.543 30.6697 56.6434 30.4289C56.7437 30.1881 56.7953 29.9298 56.7953 29.6689C56.7953 29.4081 56.7437 29.1498 56.6434 28.909C56.543 28.6682 56.396 28.4496 56.2108 28.2659Z" fill="#6C63FF"/>
</g>
</g>
</g>
</svg>
