<svg width="84" height="84" viewBox="0 0 84 84" fill="none" xmlns="http://www.w3.org/2000/svg">
<g id="Icon">
<path id="Rectangle 255" d="M79 0H5C2.23858 0 0 2.23858 0 5V79C0 81.7614 2.23858 84 5 84H79C81.7614 84 84 81.7614 84 79V5C84 2.23858 81.7614 0 79 0Z" fill="#DDF7FF"/>
<g id="Layer 2">
<g id="award">
<path id="Path 257" d="M54.7611 56.4472L50.5491 41.5902C52.0843 39.8934 52.9355 37.6875 52.9381 35.3992C52.9381 29.9252 48.0401 25.4902 41.9981 25.4902C35.9561 25.4902 31.0581 29.9252 31.0581 35.3962C31.0681 37.7029 31.9394 39.9226 33.5011 41.6202L29.2341 56.4472C29.1467 56.7705 29.165 57.1132 29.2862 57.4254C29.4075 57.7375 29.6254 58.0027 29.9081 58.1822C30.2057 58.3802 30.5513 58.494 30.9083 58.5117C31.2653 58.5293 31.6204 58.45 31.9361 58.2822L41.6541 53.1142L52.0081 58.2962C52.2931 58.4503 52.6144 58.5246 52.9381 58.5112C53.2153 58.5221 53.4915 58.4724 53.7475 58.3655C54.0034 58.2585 54.233 58.097 54.4201 57.8922C54.5947 57.7 54.7177 57.4666 54.7773 57.2138C54.837 56.961 54.8314 56.6973 54.7611 56.4472ZM41.9981 28.7902C46.0261 28.7902 49.2911 31.7472 49.2911 35.3902C49.2911 39.0332 46.0261 41.9902 41.9981 41.9902C37.9701 41.9902 34.7051 39.0332 34.7051 35.3902C34.7051 31.7472 37.9701 28.7902 41.9981 28.7902ZM42.5631 49.7742C42.2812 49.6289 41.9687 49.5531 41.6516 49.5531C41.3345 49.5531 41.0219 49.6289 40.7401 49.7742L33.9021 53.4092L36.5281 43.9982C38.198 44.8554 40.048 45.3026 41.9251 45.3026C43.8021 45.3026 45.6522 44.8554 47.3221 43.9982L50.1121 53.5572L42.5631 49.7742Z" fill="#4FC5F3"/>
</g>
</g>
</g>
</svg>
