<svg width="207" height="207" viewBox="0 0 207 207" fill="none" xmlns="http://www.w3.org/2000/svg">
<circle cx="103.5" cy="103.5" r="103.5" fill="#3600D9"/>
<path d="M73 77H89L119 129.5V77H133V154H118L87 102.5V154H73V77Z" fill="white"/>
<path d="M103.68 36.0043C94.6902 35.9029 85.7708 37.5983 77.4453 40.991C69.1198 44.3837 61.556 49.4054 55.1977 55.7612C52.2682 58.6896 52.2673 63.4384 55.1957 66.3678C58.1241 69.2973 62.8728 69.2982 65.8023 66.3699C70.7476 61.4264 76.6306 57.5207 83.106 54.8819C89.5814 52.2431 96.5187 50.9245 103.511 51.0033C110.503 51.0822 117.408 52.557 123.823 55.3412C130.237 58.1254 136.03 62.1629 140.863 67.2167C143.725 70.2104 148.473 70.3166 151.467 67.4539C154.46 64.5913 154.567 59.8437 151.704 56.85C145.491 50.3523 138.042 45.1613 129.795 41.5816C121.548 38.0019 112.669 36.1057 103.68 36.0043Z" fill="white"/>
</svg>
