<svg width="101" height="118" viewBox="0 0 101 118" fill="none" xmlns="http://www.w3.org/2000/svg">
<path d="M20 41H36L66 93.5V41H80V118H65L34 66.5V118H20V41Z" fill="black"/>
<path d="M50.6798 0.00429544C41.6902 -0.0971221 32.7708 1.59829 24.4453 4.99101C16.1198 8.38372 8.55597 13.4054 2.19771 19.7612C-0.731783 22.6896 -0.732683 27.4384 2.19569 30.3678C5.12407 33.2973 9.87281 33.2982 12.8023 30.3699C17.7476 25.4264 23.6306 21.5207 30.106 18.8819C36.5814 16.2431 43.5187 14.9245 50.5106 15.0033C57.5026 15.0822 64.4083 16.557 70.8225 19.3412C77.2367 22.1254 83.0301 26.1629 87.8626 31.2167C90.7253 34.2104 95.4729 34.3166 98.4666 31.4539C101.46 28.5913 101.567 23.8437 98.7039 20.85C92.4906 14.3523 85.042 9.16128 76.7951 5.5816C68.5483 2.00191 59.6695 0.105713 50.6798 0.00429544Z" fill="#3600D9"/>
</svg>
