<svg width="74" height="74" viewBox="0 0 74 74" fill="none" xmlns="http://www.w3.org/2000/svg">
<g id="Icon">
<g id="Ellipse 25">
<path id="Vector" d="M37 74C57.4345 74 74 57.4345 74 37C74 16.5655 57.4345 0 37 0C16.5655 0 0 16.5655 0 37C0 57.4345 16.5655 74 37 74Z" fill="white"/>
<path id="Vector_2" d="M37 73C56.8823 73 73 56.8823 73 37C73 17.1177 56.8823 1 37 1C17.1177 1 1 17.1177 1 37C1 56.8823 17.1177 73 37 73Z" stroke="#344264" stroke-width="2"/>
</g>
<path id="Ellipse 26" d="M37 62C50.2548 62 61 51.2548 61 38C61 24.7452 50.2548 14 37 14C23.7452 14 13 24.7452 13 38C13 51.2548 23.7452 62 37 62Z" fill="#2E3D61"/>
<path id="Path 59" d="M34.836 26H32V40.767L40.923 49.69L42.928 47.685L34.836 39.592V26Z" fill="white"/>
</g>
</svg>
