<svg width="74" height="74" viewBox="0 0 74 74" fill="none" xmlns="http://www.w3.org/2000/svg">
<g id="Icon">
<g id="Ellipse 25">
<path id="Vector" d="M37 74C57.4345 74 74 57.4345 74 37C74 16.5655 57.4345 0 37 0C16.5655 0 0 16.5655 0 37C0 57.4345 16.5655 74 37 74Z" fill="white"/>
<path id="Vector_2" d="M37 73C56.8823 73 73 56.8823 73 37C73 17.1177 56.8823 1 37 1C17.1177 1 1 17.1177 1 37C1 56.8823 17.1177 73 37 73Z" stroke="#F56962" stroke-width="2"/>
</g>
<path id="Ellipse 26" d="M37 61C50.2548 61 61 50.2548 61 37C61 23.7452 50.2548 13 37 13C23.7452 13 13 23.7452 13 37C13 50.2548 23.7452 61 37 61Z" fill="#F56962"/>
<g id="icon">
<g id="people">
<path id="Path 53" d="M33.25 35.75C34.2389 35.75 35.2056 35.4568 36.0279 34.9073C36.8501 34.3579 37.491 33.577 37.8694 32.6634C38.2478 31.7498 38.3469 30.7445 38.1539 29.7746C37.961 28.8046 37.4848 27.9137 36.7855 27.2145C36.0863 26.5152 35.1954 26.039 34.2255 25.8461C33.2555 25.6531 32.2502 25.7522 31.3366 26.1306C30.423 26.509 29.6421 27.1499 29.0927 27.9722C28.5432 28.7944 28.25 29.7611 28.25 30.75C28.25 32.0761 28.7768 33.3479 29.7145 34.2855C30.6521 35.2232 31.9239 35.75 33.25 35.75ZM33.25 28.25C33.7445 28.25 34.2278 28.3966 34.6389 28.6713C35.05 28.946 35.3705 29.3365 35.5597 29.7933C35.7489 30.2501 35.7984 30.7528 35.702 31.2377C35.6055 31.7227 35.3674 32.1681 35.0178 32.5178C34.6681 32.8674 34.2227 33.1055 33.7377 33.202C33.2528 33.2984 32.7501 33.2489 32.2933 33.0597C31.8365 32.8705 31.446 32.5501 31.1713 32.1389C30.8966 31.7278 30.75 31.2445 30.75 30.75C30.75 30.087 31.0134 29.4511 31.4822 28.9822C31.9511 28.5134 32.587 28.25 33.25 28.25Z" fill="white"/>
<path id="Path 54" d="M43.25 38.25C43.9917 38.25 44.7167 38.0301 45.3334 37.618C45.9501 37.206 46.4307 36.6203 46.7145 35.9351C46.9984 35.2498 47.0726 34.4958 46.9279 33.7684C46.7832 33.041 46.4261 32.3728 45.9017 31.8484C45.3772 31.3239 44.709 30.9668 43.9816 30.8221C43.2542 30.6774 42.5002 30.7516 41.8149 31.0355C41.1297 31.3193 40.544 31.7999 40.132 32.4166C39.7199 33.0333 39.5 33.7583 39.5 34.5C39.5 35.4946 39.8951 36.4484 40.5983 37.1517C41.3016 37.8549 42.2554 38.25 43.25 38.25ZM43.25 33.25C43.4972 33.25 43.7389 33.3233 43.9445 33.4607C44.15 33.598 44.3102 33.7932 44.4049 34.0216C44.4995 34.2501 44.5242 34.5014 44.476 34.7439C44.4277 34.9863 44.3087 35.2091 44.1339 35.3839C43.9591 35.5587 43.7363 35.6778 43.4939 35.726C43.2514 35.7742 43.0001 35.7495 42.7716 35.6549C42.5432 35.5602 42.348 35.4 42.2107 35.1945C42.0733 34.9889 42 34.7472 42 34.5C42 34.1685 42.1317 33.8505 42.3661 33.6161C42.6005 33.3817 42.9185 33.25 43.25 33.25Z" fill="white"/>
<path id="Path 55" d="M43.25 39.4994C41.8647 39.5011 40.5193 39.9629 39.425 40.8124C38.2007 39.5929 36.6426 38.7632 34.9474 38.4279C33.2522 38.0927 31.4956 38.267 29.8993 38.9287C28.3029 39.5905 26.9383 40.7101 25.9774 42.1464C25.0165 43.5827 24.5024 45.2713 24.5 46.9994C24.5 47.3309 24.6317 47.6488 24.8661 47.8833C25.1005 48.1177 25.4185 48.2494 25.75 48.2494C26.0815 48.2494 26.3995 48.1177 26.6339 47.8833C26.8683 47.6488 27 47.3309 27 46.9994C27 45.3418 27.6585 43.7521 28.8306 42.58C30.0027 41.4079 31.5924 40.7494 33.25 40.7494C34.9076 40.7494 36.4973 41.4079 37.6694 42.58C38.8415 43.7521 39.5 45.3418 39.5 46.9994C39.5 47.3309 39.6317 47.6488 39.8661 47.8833C40.1005 48.1177 40.4185 48.2494 40.75 48.2494C41.0815 48.2494 41.3995 48.1177 41.6339 47.8833C41.8683 47.6488 42 47.3309 42 46.9994C42.0029 45.5351 41.6329 44.0942 40.925 42.8124C41.4775 42.3758 42.1418 42.1036 42.8418 42.0269C43.5418 41.9503 44.2492 42.0723 44.8831 42.3789C45.517 42.6856 46.0518 43.1646 46.4261 43.761C46.8005 44.3574 46.9994 45.0472 47 45.7514C47 46.0829 47.1317 46.4009 47.3661 46.6353C47.6005 46.8697 47.9185 47.0014 48.25 47.0014C48.5815 47.0014 48.8995 46.8697 49.1339 46.6353C49.3683 46.4009 49.5 46.0829 49.5 45.7514C49.5003 44.9305 49.3388 44.1175 49.0248 43.359C48.7108 42.6005 48.2505 41.9113 47.6701 41.3307C47.0897 40.7501 46.4006 40.2895 45.6422 39.9753C44.8838 39.6611 44.0709 39.4994 43.25 39.4994Z" fill="white"/>
</g>
</g>
</g>
</svg>
