<svg width="74" height="74" viewBox="0 0 74 74" fill="none" xmlns="http://www.w3.org/2000/svg">
<g id="Icon">
<g id="Ellipse 25">
<path id="Vector" d="M37 74C57.4345 74 74 57.4345 74 37C74 16.5655 57.4345 0 37 0C16.5655 0 0 16.5655 0 37C0 57.4345 16.5655 74 37 74Z" fill="white"/>
<path id="Vector_2" d="M37 73C56.8823 73 73 56.8823 73 37C73 17.1177 56.8823 1 37 1C17.1177 1 1 17.1177 1 37C1 56.8823 17.1177 73 37 73Z" stroke="#344264" stroke-width="2"/>
</g>
<path id="Ellipse 26" d="M37 62C50.2548 62 61 51.2548 61 38C61 24.7452 50.2548 14 37 14C23.7452 14 13 24.7452 13 38C13 51.2548 23.7452 62 37 62Z" fill="#2E3D61"/>
<g id="icon">
<g id="book-open">
<path id="Path 52" d="M48.4938 27.3114C48.3408 27.1825 48.1602 27.0906 47.966 27.0429C47.7717 26.9952 47.569 26.993 47.3738 27.0364L37.0008 29.4414L26.6278 27.0084C26.4294 26.9623 26.223 26.9634 26.0252 27.0117C25.8273 27.06 25.6436 27.1541 25.4888 27.2864C25.3307 27.4212 25.2049 27.5897 25.1204 27.7796C25.036 27.9694 24.9951 28.1757 25.0008 28.3834V45.1514C24.9901 45.465 25.0877 45.7727 25.277 46.0229C25.4664 46.2731 25.7361 46.4505 26.0408 46.5254L36.7078 48.9994H37.2948L47.9608 46.5254C48.2655 46.4505 48.5352 46.2731 48.7246 46.0229C48.9139 45.7727 49.0115 45.465 49.0008 45.1514V28.3834C49.0006 28.1784 48.955 27.9759 48.8673 27.7906C48.7797 27.6053 48.6521 27.4416 48.4938 27.3114ZM27.6678 30.0994L35.6678 31.9544V45.9044L27.6678 44.0494V30.0994ZM46.3348 44.0494L38.3348 45.9044V31.9564L46.3348 30.1014V44.0494Z" fill="white"/>
</g>
</g>
</g>
</svg>
