<svg width="348" height="121" viewBox="0 0 348 121" fill="none" xmlns="http://www.w3.org/2000/svg">
<path d="M0 19.5H16L46 72V19.5H60V96.5H45L14 45V96.5H0V19.5Z" fill="white"/>
<path d="M99.4 20.5L92 35.3H103L113.6 20.5H99.4Z" fill="white"/>
<path fill-rule="evenodd" clip-rule="evenodd" d="M95.2193 97.5C102.679 97.5 109.383 93.8075 114 87.9383V96.5H128V40.5H114V49.5617C109.383 43.6925 102.679 40 95.2193 40C81.2911 40 70 52.8718 70 68.75C70 84.6282 81.2911 97.5 95.2193 97.5ZM98.5 85.5C106.508 85.5 113 78.1127 113 69C113 59.8873 106.508 52.5 98.5 52.5C90.4919 52.5 84 59.8873 84 69C84 78.1127 90.4919 85.5 98.5 85.5Z" fill="white"/>
<path d="M143 33.5L157 26.5V40.5H170V52.5H157V80.5C157 82.7091 158.791 84.5 161 84.5H170V96.5H157C149.268 96.5 143 90.232 143 82.5V52.5H137V40.5H143V33.5Z" fill="white"/>
<path d="M180 40.5H194V96.5H180V40.5Z" fill="white"/>
<path d="M202 41.5H217L231.5 77.7504L246 41.5H261L229.4 120.5H214.4L224 96.5L202 41.5Z" fill="white"/>
<path d="M282 41.5H268V104.5C268 106.709 266.209 108.5 264 108.5H255V120.5H268C275.732 120.5 282 114.232 282 106.5V41.5Z" fill="white"/>
<path fill-rule="evenodd" clip-rule="evenodd" d="M347.289 73.0002C347.556 71.4002 347.689 69.6002 347.689 67.6002C347.689 62.2002 346.522 57.4335 344.189 53.3002C341.922 49.1002 338.689 45.8669 334.489 43.6002C330.356 41.3335 325.656 40.2002 320.389 40.2002C314.922 40.2002 310.089 41.3669 305.889 43.7002C301.689 46.0335 298.422 49.3669 296.089 53.7002C293.756 58.0335 292.589 63.0669 292.589 68.8002C292.589 74.4669 293.756 79.4669 296.089 83.8002C298.489 88.1335 301.789 91.5002 305.989 93.9002C310.256 96.2335 315.056 97.4002 320.389 97.4002C326.989 97.4002 332.556 95.7002 337.089 92.3002C341.622 88.8335 344.689 84.4335 346.289 79.1002H331.189C328.989 83.5669 325.289 85.8002 320.089 85.8002C316.489 85.8002 313.456 84.6669 310.989 82.4002C308.522 80.1335 307.122 77.0002 306.789 73.0002H347.289ZM329.289 55.0002C331.822 57.1335 333.122 60.0002 333.189 63.6002H306.889C307.422 59.8669 308.856 56.9669 311.189 54.9002C313.589 52.7669 316.522 51.7002 319.989 51.7002C323.656 51.7002 326.756 52.8002 329.289 55.0002Z" fill="white"/>
<path d="M231.761 0.00429544C222.772 -0.0971221 213.852 1.59829 205.527 4.99101C197.201 8.38372 189.638 13.4054 183.279 19.7612C180.35 22.6896 180.349 27.4384 183.277 30.3678C186.206 33.2973 190.954 33.2982 193.884 30.3699C198.829 25.4264 204.712 21.5207 211.188 18.8819C217.663 16.2431 224.6 14.9245 231.592 15.0033C238.584 15.0822 245.49 16.557 251.904 19.3412C258.318 22.1254 264.112 26.1629 268.944 31.2167C271.807 34.2104 276.554 34.3166 279.548 31.4539C282.542 28.5913 282.648 23.8437 279.785 20.85C273.572 14.3523 266.124 9.16128 257.877 5.5816C249.63 2.00191 240.751 0.105713 231.761 0.00429544Z" fill="#3600D9"/>
</svg>
