<svg width="138" height="138" viewBox="0 0 138 138" fill="none" xmlns="http://www.w3.org/2000/svg">
<g id="Pattern 2" opacity="0.2">
<g id="Pattern 2_2" opacity="0.2">
<g id="Group" opacity="0.2">
<path id="Ellipse 29" opacity="0.2" d="M1.5 3C2.32843 3 3 2.32843 3 1.5C3 0.671573 2.32843 0 1.5 0C0.671573 0 0 0.671573 0 1.5C0 2.32843 0.671573 3 1.5 3Z" fill="#302D3A"/>
</g>
<g id="Group_2" opacity="0.2">
<path id="Ellipse 29_2" opacity="0.2" d="M16.5 3C17.3284 3 18 2.32843 18 1.5C18 0.671573 17.3284 0 16.5 0C15.6716 0 15 0.671573 15 1.5C15 2.32843 15.6716 3 16.5 3Z" fill="#302D3A"/>
</g>
<g id="Group_3" opacity="0.2">
<path id="Ellipse 29_3" opacity="0.2" d="M31.5 3C32.3284 3 33 2.32843 33 1.5C33 0.671573 32.3284 0 31.5 0C30.6716 0 30 0.671573 30 1.5C30 2.32843 30.6716 3 31.5 3Z" fill="#302D3A"/>
</g>
<g id="Group_4" opacity="0.2">
<path id="Ellipse 29_4" opacity="0.2" d="M46.5 3C47.3284 3 48 2.32843 48 1.5C48 0.671573 47.3284 0 46.5 0C45.6716 0 45 0.671573 45 1.5C45 2.32843 45.6716 3 46.5 3Z" fill="#302D3A"/>
</g>
<g id="Group_5" opacity="0.2">
<path id="Ellipse 29_5" opacity="0.2" d="M61.5 3C62.3284 3 63 2.32843 63 1.5C63 0.671573 62.3284 0 61.5 0C60.6716 0 60 0.671573 60 1.5C60 2.32843 60.6716 3 61.5 3Z" fill="#302D3A"/>
</g>
<g id="Group_6" opacity="0.2">
<path id="Ellipse 29_6" opacity="0.2" d="M76.5 3C77.3284 3 78 2.32843 78 1.5C78 0.671573 77.3284 0 76.5 0C75.6716 0 75 0.671573 75 1.5C75 2.32843 75.6716 3 76.5 3Z" fill="#302D3A"/>
</g>
<g id="Group_7" opacity="0.2">
<path id="Ellipse 29_7" opacity="0.2" d="M91.5 3C92.3284 3 93 2.32843 93 1.5C93 0.671573 92.3284 0 91.5 0C90.6716 0 90 0.671573 90 1.5C90 2.32843 90.6716 3 91.5 3Z" fill="#302D3A"/>
</g>
<g id="Group_8" opacity="0.2">
<path id="Ellipse 29_8" opacity="0.2" d="M106.5 3C107.328 3 108 2.32843 108 1.5C108 0.671573 107.328 0 106.5 0C105.672 0 105 0.671573 105 1.5C105 2.32843 105.672 3 106.5 3Z" fill="#302D3A"/>
</g>
<g id="Group_9" opacity="0.2">
<path id="Ellipse 29_9" opacity="0.2" d="M121.5 3C122.328 3 123 2.32843 123 1.5C123 0.671573 122.328 0 121.5 0C120.672 0 120 0.671573 120 1.5C120 2.32843 120.672 3 121.5 3Z" fill="#302D3A"/>
</g>
<g id="Group_10" opacity="0.2">
<path id="Ellipse 29_10" opacity="0.2" d="M136.5 3C137.328 3 138 2.32843 138 1.5C138 0.671573 137.328 0 136.5 0C135.672 0 135 0.671573 135 1.5C135 2.32843 135.672 3 136.5 3Z" fill="#302D3A"/>
</g>
<g id="Group_11" opacity="0.2">
<path id="Ellipse 29_11" opacity="0.2" d="M1.5 18C2.32843 18 3 17.3284 3 16.5C3 15.6716 2.32843 15 1.5 15C0.671573 15 0 15.6716 0 16.5C0 17.3284 0.671573 18 1.5 18Z" fill="#302D3A"/>
</g>
<g id="Group_12" opacity="0.2">
<path id="Ellipse 29_12" opacity="0.2" d="M16.5 18C17.3284 18 18 17.3284 18 16.5C18 15.6716 17.3284 15 16.5 15C15.6716 15 15 15.6716 15 16.5C15 17.3284 15.6716 18 16.5 18Z" fill="#302D3A"/>
</g>
<g id="Group_13" opacity="0.2">
<path id="Ellipse 29_13" opacity="0.2" d="M31.5 18C32.3284 18 33 17.3284 33 16.5C33 15.6716 32.3284 15 31.5 15C30.6716 15 30 15.6716 30 16.5C30 17.3284 30.6716 18 31.5 18Z" fill="#302D3A"/>
</g>
<g id="Group_14" opacity="0.2">
<path id="Ellipse 29_14" opacity="0.2" d="M46.5 18C47.3284 18 48 17.3284 48 16.5C48 15.6716 47.3284 15 46.5 15C45.6716 15 45 15.6716 45 16.5C45 17.3284 45.6716 18 46.5 18Z" fill="#302D3A"/>
</g>
<g id="Group_15" opacity="0.2">
<path id="Ellipse 29_15" opacity="0.2" d="M61.5 18C62.3284 18 63 17.3284 63 16.5C63 15.6716 62.3284 15 61.5 15C60.6716 15 60 15.6716 60 16.5C60 17.3284 60.6716 18 61.5 18Z" fill="#302D3A"/>
</g>
<g id="Group_16" opacity="0.2">
<path id="Ellipse 29_16" opacity="0.2" d="M76.5 18C77.3284 18 78 17.3284 78 16.5C78 15.6716 77.3284 15 76.5 15C75.6716 15 75 15.6716 75 16.5C75 17.3284 75.6716 18 76.5 18Z" fill="#302D3A"/>
</g>
<g id="Group_17" opacity="0.2">
<path id="Ellipse 29_17" opacity="0.2" d="M91.5 18C92.3284 18 93 17.3284 93 16.5C93 15.6716 92.3284 15 91.5 15C90.6716 15 90 15.6716 90 16.5C90 17.3284 90.6716 18 91.5 18Z" fill="#302D3A"/>
</g>
<g id="Group_18" opacity="0.2">
<path id="Ellipse 29_18" opacity="0.2" d="M106.5 18C107.328 18 108 17.3284 108 16.5C108 15.6716 107.328 15 106.5 15C105.672 15 105 15.6716 105 16.5C105 17.3284 105.672 18 106.5 18Z" fill="#302D3A"/>
</g>
<g id="Group_19" opacity="0.2">
<path id="Ellipse 29_19" opacity="0.2" d="M121.5 18C122.328 18 123 17.3284 123 16.5C123 15.6716 122.328 15 121.5 15C120.672 15 120 15.6716 120 16.5C120 17.3284 120.672 18 121.5 18Z" fill="#302D3A"/>
</g>
<g id="Group_20" opacity="0.2">
<path id="Ellipse 29_20" opacity="0.2" d="M136.5 18C137.328 18 138 17.3284 138 16.5C138 15.6716 137.328 15 136.5 15C135.672 15 135 15.6716 135 16.5C135 17.3284 135.672 18 136.5 18Z" fill="#302D3A"/>
</g>
<g id="Group_21" opacity="0.2">
<path id="Ellipse 29_21" opacity="0.2" d="M1.5 33C2.32843 33 3 32.3284 3 31.5C3 30.6716 2.32843 30 1.5 30C0.671573 30 0 30.6716 0 31.5C0 32.3284 0.671573 33 1.5 33Z" fill="#302D3A"/>
</g>
<g id="Group_22" opacity="0.2">
<path id="Ellipse 29_22" opacity="0.2" d="M16.5 33C17.3284 33 18 32.3284 18 31.5C18 30.6716 17.3284 30 16.5 30C15.6716 30 15 30.6716 15 31.5C15 32.3284 15.6716 33 16.5 33Z" fill="#302D3A"/>
</g>
<g id="Group_23" opacity="0.2">
<path id="Ellipse 29_23" opacity="0.2" d="M31.5 33C32.3284 33 33 32.3284 33 31.5C33 30.6716 32.3284 30 31.5 30C30.6716 30 30 30.6716 30 31.5C30 32.3284 30.6716 33 31.5 33Z" fill="#302D3A"/>
</g>
<g id="Group_24" opacity="0.2">
<path id="Ellipse 29_24" opacity="0.2" d="M46.5 33C47.3284 33 48 32.3284 48 31.5C48 30.6716 47.3284 30 46.5 30C45.6716 30 45 30.6716 45 31.5C45 32.3284 45.6716 33 46.5 33Z" fill="#302D3A"/>
</g>
<g id="Group_25" opacity="0.2">
<path id="Ellipse 29_25" opacity="0.2" d="M61.5 33C62.3284 33 63 32.3284 63 31.5C63 30.6716 62.3284 30 61.5 30C60.6716 30 60 30.6716 60 31.5C60 32.3284 60.6716 33 61.5 33Z" fill="#302D3A"/>
</g>
<g id="Group_26" opacity="0.2">
<path id="Ellipse 29_26" opacity="0.2" d="M76.5 33C77.3284 33 78 32.3284 78 31.5C78 30.6716 77.3284 30 76.5 30C75.6716 30 75 30.6716 75 31.5C75 32.3284 75.6716 33 76.5 33Z" fill="#302D3A"/>
</g>
<g id="Group_27" opacity="0.2">
<path id="Ellipse 29_27" opacity="0.2" d="M91.5 33C92.3284 33 93 32.3284 93 31.5C93 30.6716 92.3284 30 91.5 30C90.6716 30 90 30.6716 90 31.5C90 32.3284 90.6716 33 91.5 33Z" fill="#302D3A"/>
</g>
<g id="Group_28" opacity="0.2">
<path id="Ellipse 29_28" opacity="0.2" d="M106.5 33C107.328 33 108 32.3284 108 31.5C108 30.6716 107.328 30 106.5 30C105.672 30 105 30.6716 105 31.5C105 32.3284 105.672 33 106.5 33Z" fill="#302D3A"/>
</g>
<g id="Group_29" opacity="0.2">
<path id="Ellipse 29_29" opacity="0.2" d="M121.5 33C122.328 33 123 32.3284 123 31.5C123 30.6716 122.328 30 121.5 30C120.672 30 120 30.6716 120 31.5C120 32.3284 120.672 33 121.5 33Z" fill="#302D3A"/>
</g>
<g id="Group_30" opacity="0.2">
<path id="Ellipse 29_30" opacity="0.2" d="M136.5 33C137.328 33 138 32.3284 138 31.5C138 30.6716 137.328 30 136.5 30C135.672 30 135 30.6716 135 31.5C135 32.3284 135.672 33 136.5 33Z" fill="#302D3A"/>
</g>
<g id="Group_31" opacity="0.2">
<path id="Ellipse 29_31" opacity="0.2" d="M1.5 48C2.32843 48 3 47.3284 3 46.5C3 45.6716 2.32843 45 1.5 45C0.671573 45 0 45.6716 0 46.5C0 47.3284 0.671573 48 1.5 48Z" fill="#302D3A"/>
</g>
<g id="Group_32" opacity="0.2">
<path id="Ellipse 29_32" opacity="0.2" d="M16.5 48C17.3284 48 18 47.3284 18 46.5C18 45.6716 17.3284 45 16.5 45C15.6716 45 15 45.6716 15 46.5C15 47.3284 15.6716 48 16.5 48Z" fill="#302D3A"/>
</g>
<g id="Group_33" opacity="0.2">
<path id="Ellipse 29_33" opacity="0.2" d="M31.5 48C32.3284 48 33 47.3284 33 46.5C33 45.6716 32.3284 45 31.5 45C30.6716 45 30 45.6716 30 46.5C30 47.3284 30.6716 48 31.5 48Z" fill="#302D3A"/>
</g>
<g id="Group_34" opacity="0.2">
<path id="Ellipse 29_34" opacity="0.2" d="M46.5 48C47.3284 48 48 47.3284 48 46.5C48 45.6716 47.3284 45 46.5 45C45.6716 45 45 45.6716 45 46.5C45 47.3284 45.6716 48 46.5 48Z" fill="#302D3A"/>
</g>
<g id="Group_35" opacity="0.2">
<path id="Ellipse 29_35" opacity="0.2" d="M61.5 48C62.3284 48 63 47.3284 63 46.5C63 45.6716 62.3284 45 61.5 45C60.6716 45 60 45.6716 60 46.5C60 47.3284 60.6716 48 61.5 48Z" fill="#302D3A"/>
</g>
<g id="Group_36" opacity="0.2">
<path id="Ellipse 29_36" opacity="0.2" d="M76.5 48C77.3284 48 78 47.3284 78 46.5C78 45.6716 77.3284 45 76.5 45C75.6716 45 75 45.6716 75 46.5C75 47.3284 75.6716 48 76.5 48Z" fill="#302D3A"/>
</g>
<g id="Group_37" opacity="0.2">
<path id="Ellipse 29_37" opacity="0.2" d="M91.5 48C92.3284 48 93 47.3284 93 46.5C93 45.6716 92.3284 45 91.5 45C90.6716 45 90 45.6716 90 46.5C90 47.3284 90.6716 48 91.5 48Z" fill="#302D3A"/>
</g>
<g id="Group_38" opacity="0.2">
<path id="Ellipse 29_38" opacity="0.2" d="M106.5 48C107.328 48 108 47.3284 108 46.5C108 45.6716 107.328 45 106.5 45C105.672 45 105 45.6716 105 46.5C105 47.3284 105.672 48 106.5 48Z" fill="#302D3A"/>
</g>
<g id="Group_39" opacity="0.2">
<path id="Ellipse 29_39" opacity="0.2" d="M121.5 48C122.328 48 123 47.3284 123 46.5C123 45.6716 122.328 45 121.5 45C120.672 45 120 45.6716 120 46.5C120 47.3284 120.672 48 121.5 48Z" fill="#302D3A"/>
</g>
<g id="Group_40" opacity="0.2">
<path id="Ellipse 29_40" opacity="0.2" d="M136.5 48C137.328 48 138 47.3284 138 46.5C138 45.6716 137.328 45 136.5 45C135.672 45 135 45.6716 135 46.5C135 47.3284 135.672 48 136.5 48Z" fill="#302D3A"/>
</g>
<g id="Group_41" opacity="0.2">
<path id="Ellipse 29_41" opacity="0.2" d="M1.5 63C2.32843 63 3 62.3284 3 61.5C3 60.6716 2.32843 60 1.5 60C0.671573 60 0 60.6716 0 61.5C0 62.3284 0.671573 63 1.5 63Z" fill="#302D3A"/>
</g>
<g id="Group_42" opacity="0.2">
<path id="Ellipse 29_42" opacity="0.2" d="M16.5 63C17.3284 63 18 62.3284 18 61.5C18 60.6716 17.3284 60 16.5 60C15.6716 60 15 60.6716 15 61.5C15 62.3284 15.6716 63 16.5 63Z" fill="#302D3A"/>
</g>
<g id="Group_43" opacity="0.2">
<path id="Ellipse 29_43" opacity="0.2" d="M31.5 63C32.3284 63 33 62.3284 33 61.5C33 60.6716 32.3284 60 31.5 60C30.6716 60 30 60.6716 30 61.5C30 62.3284 30.6716 63 31.5 63Z" fill="#302D3A"/>
</g>
<g id="Group_44" opacity="0.2">
<path id="Ellipse 29_44" opacity="0.2" d="M46.5 63C47.3284 63 48 62.3284 48 61.5C48 60.6716 47.3284 60 46.5 60C45.6716 60 45 60.6716 45 61.5C45 62.3284 45.6716 63 46.5 63Z" fill="#302D3A"/>
</g>
<g id="Group_45" opacity="0.2">
<path id="Ellipse 29_45" opacity="0.2" d="M61.5 63C62.3284 63 63 62.3284 63 61.5C63 60.6716 62.3284 60 61.5 60C60.6716 60 60 60.6716 60 61.5C60 62.3284 60.6716 63 61.5 63Z" fill="#302D3A"/>
</g>
<g id="Group_46" opacity="0.2">
<path id="Ellipse 29_46" opacity="0.2" d="M76.5 63C77.3284 63 78 62.3284 78 61.5C78 60.6716 77.3284 60 76.5 60C75.6716 60 75 60.6716 75 61.5C75 62.3284 75.6716 63 76.5 63Z" fill="#302D3A"/>
</g>
<g id="Group_47" opacity="0.2">
<path id="Ellipse 29_47" opacity="0.2" d="M91.5 63C92.3284 63 93 62.3284 93 61.5C93 60.6716 92.3284 60 91.5 60C90.6716 60 90 60.6716 90 61.5C90 62.3284 90.6716 63 91.5 63Z" fill="#302D3A"/>
</g>
<g id="Group_48" opacity="0.2">
<path id="Ellipse 29_48" opacity="0.2" d="M106.5 63C107.328 63 108 62.3284 108 61.5C108 60.6716 107.328 60 106.5 60C105.672 60 105 60.6716 105 61.5C105 62.3284 105.672 63 106.5 63Z" fill="#302D3A"/>
</g>
<g id="Group_49" opacity="0.2">
<path id="Ellipse 29_49" opacity="0.2" d="M121.5 63C122.328 63 123 62.3284 123 61.5C123 60.6716 122.328 60 121.5 60C120.672 60 120 60.6716 120 61.5C120 62.3284 120.672 63 121.5 63Z" fill="#302D3A"/>
</g>
<g id="Group_50" opacity="0.2">
<path id="Ellipse 29_50" opacity="0.2" d="M136.5 63C137.328 63 138 62.3284 138 61.5C138 60.6716 137.328 60 136.5 60C135.672 60 135 60.6716 135 61.5C135 62.3284 135.672 63 136.5 63Z" fill="#302D3A"/>
</g>
<g id="Group_51" opacity="0.2">
<path id="Ellipse 29_51" opacity="0.2" d="M1.5 78C2.32843 78 3 77.3284 3 76.5C3 75.6716 2.32843 75 1.5 75C0.671573 75 0 75.6716 0 76.5C0 77.3284 0.671573 78 1.5 78Z" fill="#302D3A"/>
</g>
<g id="Group_52" opacity="0.2">
<path id="Ellipse 29_52" opacity="0.2" d="M16.5 78C17.3284 78 18 77.3284 18 76.5C18 75.6716 17.3284 75 16.5 75C15.6716 75 15 75.6716 15 76.5C15 77.3284 15.6716 78 16.5 78Z" fill="#302D3A"/>
</g>
<g id="Group_53" opacity="0.2">
<path id="Ellipse 29_53" opacity="0.2" d="M31.5 78C32.3284 78 33 77.3284 33 76.5C33 75.6716 32.3284 75 31.5 75C30.6716 75 30 75.6716 30 76.5C30 77.3284 30.6716 78 31.5 78Z" fill="#302D3A"/>
</g>
<g id="Group_54" opacity="0.2">
<path id="Ellipse 29_54" opacity="0.2" d="M46.5 78C47.3284 78 48 77.3284 48 76.5C48 75.6716 47.3284 75 46.5 75C45.6716 75 45 75.6716 45 76.5C45 77.3284 45.6716 78 46.5 78Z" fill="#302D3A"/>
</g>
<g id="Group_55" opacity="0.2">
<path id="Ellipse 29_55" opacity="0.2" d="M61.5 78C62.3284 78 63 77.3284 63 76.5C63 75.6716 62.3284 75 61.5 75C60.6716 75 60 75.6716 60 76.5C60 77.3284 60.6716 78 61.5 78Z" fill="#302D3A"/>
</g>
<g id="Group_56" opacity="0.2">
<path id="Ellipse 29_56" opacity="0.2" d="M76.5 78C77.3284 78 78 77.3284 78 76.5C78 75.6716 77.3284 75 76.5 75C75.6716 75 75 75.6716 75 76.5C75 77.3284 75.6716 78 76.5 78Z" fill="#302D3A"/>
</g>
<g id="Group_57" opacity="0.2">
<path id="Ellipse 29_57" opacity="0.2" d="M91.5 78C92.3284 78 93 77.3284 93 76.5C93 75.6716 92.3284 75 91.5 75C90.6716 75 90 75.6716 90 76.5C90 77.3284 90.6716 78 91.5 78Z" fill="#302D3A"/>
</g>
<g id="Group_58" opacity="0.2">
<path id="Ellipse 29_58" opacity="0.2" d="M106.5 78C107.328 78 108 77.3284 108 76.5C108 75.6716 107.328 75 106.5 75C105.672 75 105 75.6716 105 76.5C105 77.3284 105.672 78 106.5 78Z" fill="#302D3A"/>
</g>
<g id="Group_59" opacity="0.2">
<path id="Ellipse 29_59" opacity="0.2" d="M121.5 78C122.328 78 123 77.3284 123 76.5C123 75.6716 122.328 75 121.5 75C120.672 75 120 75.6716 120 76.5C120 77.3284 120.672 78 121.5 78Z" fill="#302D3A"/>
</g>
<g id="Group_60" opacity="0.2">
<path id="Ellipse 29_60" opacity="0.2" d="M136.5 78C137.328 78 138 77.3284 138 76.5C138 75.6716 137.328 75 136.5 75C135.672 75 135 75.6716 135 76.5C135 77.3284 135.672 78 136.5 78Z" fill="#302D3A"/>
</g>
<g id="Group_61" opacity="0.2">
<path id="Ellipse 29_61" opacity="0.2" d="M1.5 93C2.32843 93 3 92.3284 3 91.5C3 90.6716 2.32843 90 1.5 90C0.671573 90 0 90.6716 0 91.5C0 92.3284 0.671573 93 1.5 93Z" fill="#302D3A"/>
</g>
<g id="Group_62" opacity="0.2">
<path id="Ellipse 29_62" opacity="0.2" d="M16.5 93C17.3284 93 18 92.3284 18 91.5C18 90.6716 17.3284 90 16.5 90C15.6716 90 15 90.6716 15 91.5C15 92.3284 15.6716 93 16.5 93Z" fill="#302D3A"/>
</g>
<g id="Group_63" opacity="0.2">
<path id="Ellipse 29_63" opacity="0.2" d="M31.5 93C32.3284 93 33 92.3284 33 91.5C33 90.6716 32.3284 90 31.5 90C30.6716 90 30 90.6716 30 91.5C30 92.3284 30.6716 93 31.5 93Z" fill="#302D3A"/>
</g>
<g id="Group_64" opacity="0.2">
<path id="Ellipse 29_64" opacity="0.2" d="M46.5 93C47.3284 93 48 92.3284 48 91.5C48 90.6716 47.3284 90 46.5 90C45.6716 90 45 90.6716 45 91.5C45 92.3284 45.6716 93 46.5 93Z" fill="#302D3A"/>
</g>
<g id="Group_65" opacity="0.2">
<path id="Ellipse 29_65" opacity="0.2" d="M61.5 93C62.3284 93 63 92.3284 63 91.5C63 90.6716 62.3284 90 61.5 90C60.6716 90 60 90.6716 60 91.5C60 92.3284 60.6716 93 61.5 93Z" fill="#302D3A"/>
</g>
<g id="Group_66" opacity="0.2">
<path id="Ellipse 29_66" opacity="0.2" d="M76.5 93C77.3284 93 78 92.3284 78 91.5C78 90.6716 77.3284 90 76.5 90C75.6716 90 75 90.6716 75 91.5C75 92.3284 75.6716 93 76.5 93Z" fill="#302D3A"/>
</g>
<g id="Group_67" opacity="0.2">
<path id="Ellipse 29_67" opacity="0.2" d="M91.5 93C92.3284 93 93 92.3284 93 91.5C93 90.6716 92.3284 90 91.5 90C90.6716 90 90 90.6716 90 91.5C90 92.3284 90.6716 93 91.5 93Z" fill="#302D3A"/>
</g>
<g id="Group_68" opacity="0.2">
<path id="Ellipse 29_68" opacity="0.2" d="M106.5 93C107.328 93 108 92.3284 108 91.5C108 90.6716 107.328 90 106.5 90C105.672 90 105 90.6716 105 91.5C105 92.3284 105.672 93 106.5 93Z" fill="#302D3A"/>
</g>
<g id="Group_69" opacity="0.2">
<path id="Ellipse 29_69" opacity="0.2" d="M121.5 93C122.328 93 123 92.3284 123 91.5C123 90.6716 122.328 90 121.5 90C120.672 90 120 90.6716 120 91.5C120 92.3284 120.672 93 121.5 93Z" fill="#302D3A"/>
</g>
<g id="Group_70" opacity="0.2">
<path id="Ellipse 29_70" opacity="0.2" d="M136.5 93C137.328 93 138 92.3284 138 91.5C138 90.6716 137.328 90 136.5 90C135.672 90 135 90.6716 135 91.5C135 92.3284 135.672 93 136.5 93Z" fill="#302D3A"/>
</g>
<g id="Group_71" opacity="0.2">
<path id="Ellipse 29_71" opacity="0.2" d="M1.5 108C2.32843 108 3 107.328 3 106.5C3 105.672 2.32843 105 1.5 105C0.671573 105 0 105.672 0 106.5C0 107.328 0.671573 108 1.5 108Z" fill="#302D3A"/>
</g>
<g id="Group_72" opacity="0.2">
<path id="Ellipse 29_72" opacity="0.2" d="M16.5 108C17.3284 108 18 107.328 18 106.5C18 105.672 17.3284 105 16.5 105C15.6716 105 15 105.672 15 106.5C15 107.328 15.6716 108 16.5 108Z" fill="#302D3A"/>
</g>
<g id="Group_73" opacity="0.2">
<path id="Ellipse 29_73" opacity="0.2" d="M31.5 108C32.3284 108 33 107.328 33 106.5C33 105.672 32.3284 105 31.5 105C30.6716 105 30 105.672 30 106.5C30 107.328 30.6716 108 31.5 108Z" fill="#302D3A"/>
</g>
<g id="Group_74" opacity="0.2">
<path id="Ellipse 29_74" opacity="0.2" d="M46.5 108C47.3284 108 48 107.328 48 106.5C48 105.672 47.3284 105 46.5 105C45.6716 105 45 105.672 45 106.5C45 107.328 45.6716 108 46.5 108Z" fill="#302D3A"/>
</g>
<g id="Group_75" opacity="0.2">
<path id="Ellipse 29_75" opacity="0.2" d="M61.5 108C62.3284 108 63 107.328 63 106.5C63 105.672 62.3284 105 61.5 105C60.6716 105 60 105.672 60 106.5C60 107.328 60.6716 108 61.5 108Z" fill="#302D3A"/>
</g>
<g id="Group_76" opacity="0.2">
<path id="Ellipse 29_76" opacity="0.2" d="M76.5 108C77.3284 108 78 107.328 78 106.5C78 105.672 77.3284 105 76.5 105C75.6716 105 75 105.672 75 106.5C75 107.328 75.6716 108 76.5 108Z" fill="#302D3A"/>
</g>
<g id="Group_77" opacity="0.2">
<path id="Ellipse 29_77" opacity="0.2" d="M91.5 108C92.3284 108 93 107.328 93 106.5C93 105.672 92.3284 105 91.5 105C90.6716 105 90 105.672 90 106.5C90 107.328 90.6716 108 91.5 108Z" fill="#302D3A"/>
</g>
<g id="Group_78" opacity="0.2">
<path id="Ellipse 29_78" opacity="0.2" d="M106.5 108C107.328 108 108 107.328 108 106.5C108 105.672 107.328 105 106.5 105C105.672 105 105 105.672 105 106.5C105 107.328 105.672 108 106.5 108Z" fill="#302D3A"/>
</g>
<g id="Group_79" opacity="0.2">
<path id="Ellipse 29_79" opacity="0.2" d="M121.5 108C122.328 108 123 107.328 123 106.5C123 105.672 122.328 105 121.5 105C120.672 105 120 105.672 120 106.5C120 107.328 120.672 108 121.5 108Z" fill="#302D3A"/>
</g>
<g id="Group_80" opacity="0.2">
<path id="Ellipse 29_80" opacity="0.2" d="M136.5 108C137.328 108 138 107.328 138 106.5C138 105.672 137.328 105 136.5 105C135.672 105 135 105.672 135 106.5C135 107.328 135.672 108 136.5 108Z" fill="#302D3A"/>
</g>
<g id="Group_81" opacity="0.2">
<path id="Ellipse 29_81" opacity="0.2" d="M1.5 123C2.32843 123 3 122.328 3 121.5C3 120.672 2.32843 120 1.5 120C0.671573 120 0 120.672 0 121.5C0 122.328 0.671573 123 1.5 123Z" fill="#302D3A"/>
</g>
<g id="Group_82" opacity="0.2">
<path id="Ellipse 29_82" opacity="0.2" d="M16.5 123C17.3284 123 18 122.328 18 121.5C18 120.672 17.3284 120 16.5 120C15.6716 120 15 120.672 15 121.5C15 122.328 15.6716 123 16.5 123Z" fill="#302D3A"/>
</g>
<g id="Group_83" opacity="0.2">
<path id="Ellipse 29_83" opacity="0.2" d="M31.5 123C32.3284 123 33 122.328 33 121.5C33 120.672 32.3284 120 31.5 120C30.6716 120 30 120.672 30 121.5C30 122.328 30.6716 123 31.5 123Z" fill="#302D3A"/>
</g>
<g id="Group_84" opacity="0.2">
<path id="Ellipse 29_84" opacity="0.2" d="M46.5 123C47.3284 123 48 122.328 48 121.5C48 120.672 47.3284 120 46.5 120C45.6716 120 45 120.672 45 121.5C45 122.328 45.6716 123 46.5 123Z" fill="#302D3A"/>
</g>
<g id="Group_85" opacity="0.2">
<path id="Ellipse 29_85" opacity="0.2" d="M61.5 123C62.3284 123 63 122.328 63 121.5C63 120.672 62.3284 120 61.5 120C60.6716 120 60 120.672 60 121.5C60 122.328 60.6716 123 61.5 123Z" fill="#302D3A"/>
</g>
<g id="Group_86" opacity="0.2">
<path id="Ellipse 29_86" opacity="0.2" d="M76.5 123C77.3284 123 78 122.328 78 121.5C78 120.672 77.3284 120 76.5 120C75.6716 120 75 120.672 75 121.5C75 122.328 75.6716 123 76.5 123Z" fill="#302D3A"/>
</g>
<g id="Group_87" opacity="0.2">
<path id="Ellipse 29_87" opacity="0.2" d="M91.5 123C92.3284 123 93 122.328 93 121.5C93 120.672 92.3284 120 91.5 120C90.6716 120 90 120.672 90 121.5C90 122.328 90.6716 123 91.5 123Z" fill="#302D3A"/>
</g>
<g id="Group_88" opacity="0.2">
<path id="Ellipse 29_88" opacity="0.2" d="M106.5 123C107.328 123 108 122.328 108 121.5C108 120.672 107.328 120 106.5 120C105.672 120 105 120.672 105 121.5C105 122.328 105.672 123 106.5 123Z" fill="#302D3A"/>
</g>
<g id="Group_89" opacity="0.2">
<path id="Ellipse 29_89" opacity="0.2" d="M121.5 123C122.328 123 123 122.328 123 121.5C123 120.672 122.328 120 121.5 120C120.672 120 120 120.672 120 121.5C120 122.328 120.672 123 121.5 123Z" fill="#302D3A"/>
</g>
<g id="Group_90" opacity="0.2">
<path id="Ellipse 29_90" opacity="0.2" d="M136.5 123C137.328 123 138 122.328 138 121.5C138 120.672 137.328 120 136.5 120C135.672 120 135 120.672 135 121.5C135 122.328 135.672 123 136.5 123Z" fill="#302D3A"/>
</g>
<g id="Group_91" opacity="0.2">
<path id="Ellipse 29_91" opacity="0.2" d="M1.5 138C2.32843 138 3 137.328 3 136.5C3 135.672 2.32843 135 1.5 135C0.671573 135 0 135.672 0 136.5C0 137.328 0.671573 138 1.5 138Z" fill="#302D3A"/>
</g>
<g id="Group_92" opacity="0.2">
<path id="Ellipse 29_92" opacity="0.2" d="M16.5 138C17.3284 138 18 137.328 18 136.5C18 135.672 17.3284 135 16.5 135C15.6716 135 15 135.672 15 136.5C15 137.328 15.6716 138 16.5 138Z" fill="#302D3A"/>
</g>
<g id="Group_93" opacity="0.2">
<path id="Ellipse 29_93" opacity="0.2" d="M31.5 138C32.3284 138 33 137.328 33 136.5C33 135.672 32.3284 135 31.5 135C30.6716 135 30 135.672 30 136.5C30 137.328 30.6716 138 31.5 138Z" fill="#302D3A"/>
</g>
<g id="Group_94" opacity="0.2">
<path id="Ellipse 29_94" opacity="0.2" d="M46.5 138C47.3284 138 48 137.328 48 136.5C48 135.672 47.3284 135 46.5 135C45.6716 135 45 135.672 45 136.5C45 137.328 45.6716 138 46.5 138Z" fill="#302D3A"/>
</g>
<g id="Group_95" opacity="0.2">
<path id="Ellipse 29_95" opacity="0.2" d="M61.5 138C62.3284 138 63 137.328 63 136.5C63 135.672 62.3284 135 61.5 135C60.6716 135 60 135.672 60 136.5C60 137.328 60.6716 138 61.5 138Z" fill="#302D3A"/>
</g>
<g id="Group_96" opacity="0.2">
<path id="Ellipse 29_96" opacity="0.2" d="M76.5 138C77.3284 138 78 137.328 78 136.5C78 135.672 77.3284 135 76.5 135C75.6716 135 75 135.672 75 136.5C75 137.328 75.6716 138 76.5 138Z" fill="#302D3A"/>
</g>
<g id="Group_97" opacity="0.2">
<path id="Ellipse 29_97" opacity="0.2" d="M91.5 138C92.3284 138 93 137.328 93 136.5C93 135.672 92.3284 135 91.5 135C90.6716 135 90 135.672 90 136.5C90 137.328 90.6716 138 91.5 138Z" fill="#302D3A"/>
</g>
<g id="Group_98" opacity="0.2">
<path id="Ellipse 29_98" opacity="0.2" d="M106.5 138C107.328 138 108 137.328 108 136.5C108 135.672 107.328 135 106.5 135C105.672 135 105 135.672 105 136.5C105 137.328 105.672 138 106.5 138Z" fill="#302D3A"/>
</g>
<g id="Group_99" opacity="0.2">
<path id="Ellipse 29_99" opacity="0.2" d="M121.5 138C122.328 138 123 137.328 123 136.5C123 135.672 122.328 135 121.5 135C120.672 135 120 135.672 120 136.5C120 137.328 120.672 138 121.5 138Z" fill="#302D3A"/>
</g>
<g id="Group_100" opacity="0.2">
<path id="Ellipse 29_100" opacity="0.2" d="M136.5 138C137.328 138 138 137.328 138 136.5C138 135.672 137.328 135 136.5 135C135.672 135 135 135.672 135 136.5C135 137.328 135.672 138 136.5 138Z" fill="#302D3A"/>
</g>
</g>
</g>
</svg>
